<svg xmlns="http://www.w3.org/2000/svg" width="64" height="64" viewBox="0 0 64 64">
  <g id="Group_4588" data-name="Group 4588" transform="translate(13830 2475)">
    <circle id="Ellipse_287" data-name="Ellipse 287" cx="32" cy="32" r="32" transform="translate(-13830 -2475)" fill="#f7f7fc"/>
    <path id="Path_310" data-name="Path 310" d="M8.044,34.908v3.7H0V0H8.044V14.334a10.4,10.4,0,0,1,8.829-4.6c6.615,0,12.9,5.187,12.9,14.655v.106c0,9.465-6.183,14.651-12.9,14.651a10.876,10.876,0,0,1-8.829-4.234m13.7-10.417v-.106c0-4.71-3.175-7.828-6.929-7.828s-6.88,3.118-6.88,7.828v.106c0,4.706,3.122,7.828,6.88,7.828s6.929-3.07,6.929-7.828" transform="translate(-13809.742 -2464.021)" fill="#222"/>
  </g>
</svg>
