<svg xmlns="http://www.w3.org/2000/svg" xmlns:xlink="http://www.w3.org/1999/xlink" width="128" height="55" viewBox="0 0 128 55">
  <defs>
    <clipPath id="clip-path">
      <rect id="Rectangle_3698" data-name="Rectangle 3698" width="128" height="55" fill="none"/>
    </clipPath>
  </defs>
  <g id="Group_4585" data-name="Group 4585" transform="translate(14532.188 2490.042)">
    <g id="Group_4584" data-name="Group 4584" transform="translate(-14532.188 -2490.042)">
      <g id="Group_4552" data-name="Group 4552" clip-path="url(#clip-path)">
        <path id="Path_307" data-name="Path 307" d="M11.44,49.051v5.206H0V0H11.44V20.141A14.841,14.841,0,0,1,24,13.671c9.408,0,18.352,7.288,18.352,20.593v.149C42.349,47.712,33.555,55,24,55A15.531,15.531,0,0,1,11.44,49.051M30.921,34.413v-.149c0-6.619-4.516-11-9.853-11s-9.784,4.381-9.784,11v.149c0,6.612,4.441,11,9.784,11s9.853-4.313,9.853-11" fill="#161615"/>
        <path id="Path_308" data-name="Path 308" d="M8,31.1v-.149c0-8.7,6.7-12.71,16.251-12.71a29.139,29.139,0,0,1,9.86,1.63V19.2c0-4.685-2.935-7.288-8.655-7.288a30.077,30.077,0,0,0-11.133,2.15l-2.86-8.614a35.859,35.859,0,0,1,15.649-3.2c6.241,0,10.757,1.636,13.61,4.456,3.017,2.975,4.372,7.356,4.372,12.717V42.543H34.029V38.23c-2.779,3.049-6.617,5.057-12.187,5.057C14.247,43.287,8,38.973,8,31.1m26.255-2.6V26.486A17.915,17.915,0,0,0,26.96,25c-4.886,0-7.9,1.927-7.9,5.491v.155c0,3.049,2.559,4.828,6.247,4.828,5.344,0,8.95-2.9,8.95-6.984" transform="translate(42.176 11.72)" fill="#161615"/>
        <path id="Path_309" data-name="Path 309" d="M15.19,37.388l4.892-7.43c4.365,3.123,8.95,4.753,12.713,4.753,3.312,0,4.811-1.19,4.811-2.968v-.155c0-2.448-3.914-3.266-8.348-4.6C23.62,25.346,17.222,22.75,17.222,15.01v-.143c0-8.106,6.623-12.636,14.746-12.636a28.11,28.11,0,0,1,15.04,4.6l-4.359,7.808c-3.989-2.305-7.978-3.718-10.907-3.718-2.785,0-4.215,1.184-4.215,2.745v.155c0,2.225,3.839,3.272,8.2,4.759,5.645,1.859,12.193,4.53,12.193,11.818v.143c0,8.85-6.7,12.865-15.423,12.865a28.46,28.46,0,0,1-17.3-6.024" transform="translate(80.082 11.595)" fill="#161615"/>
      </g>
    </g>
  </g>
</svg>
