<svg xmlns="http://www.w3.org/2000/svg" xmlns:xlink="http://www.w3.org/1999/xlink" width="594" height="760" viewBox="0 0 594 760">
  <defs>
    <clipPath id="clip-path">
      <rect id="Rectangle_3698" data-name="Rectangle 3698" width="188.967" height="81.197" fill="#222"/>
    </clipPath>
  </defs>
  <g id="Group_4595" data-name="Group 4595" transform="translate(-735 -1624)">
    <g id="Group_4596" data-name="Group 4596">
      <rect id="Screenshot_2020-11-02_at_14.29.52" data-name="Screenshot 2020-11-02 at 14.29.52" width="594" height="760" transform="translate(735 1624)" fill="#fff"/>
      <g id="Group_4594" data-name="Group 4594" transform="translate(15468.517 4449.902)">
        <g id="Group_4584" data-name="Group 4584" transform="translate(-14532.188 -2490.042)">
          <g id="Group_4552" data-name="Group 4552" clip-path="url(#clip-path)">
            <path id="Path_307" data-name="Path 307" d="M16.889,72.414V80.1H0V0H16.889V29.734c4.1-5.489,9.769-9.551,18.537-9.551,13.889,0,27.093,10.759,27.093,30.4v.22C62.52,70.438,49.538,81.2,35.427,81.2c-8.991,0-14.547-4.062-18.537-8.783M45.649,50.8v-.22c0-9.771-6.667-16.239-14.547-16.239S16.658,40.813,16.658,50.584v.22c0,9.762,6.556,16.239,14.445,16.239S45.649,60.676,45.649,50.8" fill="#222"/>
            <path id="Path_308" data-name="Path 308" d="M8,44.834v-.22C8,31.769,17.889,25.85,31.991,25.85a43.019,43.019,0,0,1,14.556,2.406v-.979c0-6.917-4.333-10.759-12.778-10.759a44.4,44.4,0,0,0-16.436,3.175L13.111,6.976a52.939,52.939,0,0,1,23.1-4.721c9.213,0,15.88,2.415,20.093,6.578,4.454,4.391,6.454,10.86,6.454,18.774V61.732H46.427V55.364c-4.1,4.5-9.769,7.466-17.991,7.466C17.222,62.83,8,56.462,8,44.834m38.76-3.843V38.027a26.449,26.449,0,0,0-10.769-2.187c-7.213,0-11.667,2.845-11.667,8.106v.229c0,4.5,3.778,7.127,9.222,7.127,7.889,0,13.213-4.282,13.213-10.311" transform="translate(66.076 18.376)" fill="#222"/>
            <path id="Path_309" data-name="Path 309" d="M15.19,54.133l7.222-10.97c6.445,4.611,13.213,7.017,18.769,7.017,4.889,0,7.1-1.757,7.1-4.382v-.229c0-3.614-5.778-4.821-12.324-6.8C27.635,36.356,18.19,32.523,18.19,21.1v-.21c0-11.967,9.778-18.655,21.769-18.655a41.5,41.5,0,0,1,22.2,6.8L55.728,20.556c-5.889-3.4-11.778-5.489-16.1-5.489-4.111,0-6.222,1.747-6.222,4.053v.229c0,3.284,5.667,4.831,12.1,7.026,8.334,2.745,18,6.688,18,17.447v.21c0,13.065-9.889,18.993-22.769,18.993A42.015,42.015,0,0,1,15.19,54.133" transform="translate(125.461 18.18)" fill="#222"/>
          </g>
        </g>
      </g>
    </g>
  </g>
</svg>
