<svg xmlns="http://www.w3.org/2000/svg" width="594" height="760" viewBox="0 0 594 760">
  <g id="Group_4595" data-name="Group 4595" transform="translate(11002 724)">
    <rect id="Screenshot_2020-11-02_at_14.29.52" data-name="Screenshot 2020-11-02 at 14.29.52" width="594" height="760" transform="translate(-11002 -724)" fill="#fff"/>
    <g id="Group_4594" data-name="Group 4594" transform="translate(3005.157 2177.157)">
      <g id="Group_4590" data-name="Group 4590" transform="translate(-13828 -2639)">
        <circle id="Ellipse_287" data-name="Ellipse 287" cx="118" cy="118" r="118" transform="translate(-0.157 -0.158)" fill="#222"/>
        <path id="Path_310" data-name="Path 310" d="M25.438,110.386V122.1H0V0H25.438V45.326c6.178-8.368,14.714-14.56,27.921-14.56,20.92,0,40.807,16.4,40.807,46.344v.335c0,29.929-19.553,46.33-40.807,46.33-13.542,0-21.91-6.192-27.921-13.389M68.756,77.445V77.11c0-14.895-10.041-24.755-21.91-24.755S25.09,62.215,25.09,77.11v.335c0,14.881,9.874,24.755,21.756,24.755s21.91-9.707,21.91-24.755" transform="translate(73.652 55.239)" fill="#f7f7fc"/>
      </g>
    </g>
  </g>
</svg>
